<svg width="22" height="22" viewBox="0 0 22 22" fill="none" xmlns="http://www.w3.org/2000/svg">
<path d="M17.326 14.0178L20.6632 17.355C20.77 17.4617 20.8547 17.5884 20.9125 17.7279C20.9703 17.8674 21 18.0169 21 18.1679C21 18.3188 20.9703 18.4683 20.9125 18.6078C20.8547 18.7473 20.77 18.874 20.6632 18.9807C19.4896 20.1543 17.932 20.8651 16.2765 20.9827C14.621 21.1003 12.9787 20.6168 11.6509 19.621L9.66598 18.1313C7.4686 16.4834 5.51664 14.5314 3.86868 12.334L2.37903 10.3491C1.38322 9.02134 0.899736 7.37896 1.01734 5.72346C1.13495 4.06796 1.84575 2.51042 3.01925 1.33679C3.12599 1.23002 3.25271 1.14532 3.39219 1.08753C3.53167 1.02974 3.68116 1 3.83214 1C3.98311 1 4.1326 1.02974 4.27208 1.08753C4.41156 1.14532 4.53828 1.23002 4.64502 1.33679L7.98225 4.67402C8.21851 4.91036 8.35124 5.23086 8.35124 5.56504C8.35124 5.89922 8.21851 6.21972 7.98225 6.45606L6.6955 7.74281C6.59557 7.84255 6.52961 7.97124 6.50698 8.1106C6.48436 8.24997 6.50622 8.39291 6.56947 8.51914C8.06484 11.51 10.49 13.9352 13.4809 15.4305C13.6071 15.4938 13.75 15.5156 13.8894 15.493C14.0288 15.4704 14.1575 15.4044 14.2572 15.3045L15.5427 14.019C15.6597 13.9018 15.7987 13.8089 15.9517 13.7455C16.1047 13.682 16.2687 13.6494 16.4343 13.6494C16.5999 13.6494 16.7639 13.682 16.9169 13.7455C17.0699 13.8089 17.2089 13.9018 17.326 14.019V14.0178Z" stroke="black"/>
</svg>
