<svg width="20" height="20" viewBox="0 0 20 20" fill="none" xmlns="http://www.w3.org/2000/svg">
<path d="M17.8942 7.89531C17.8942 7.75572 17.8388 7.62186 17.7401 7.52316C17.6414 7.42446 17.5075 7.36901 17.3679 7.36901C17.2284 7.36901 17.0945 7.42446 16.9958 7.52316C16.8971 7.62186 16.8417 7.75572 16.8417 7.89531H17.8942ZM3.15835 7.89531C3.15835 7.75572 3.1029 7.62186 3.00421 7.52316C2.90551 7.42446 2.77165 7.36901 2.63207 7.36901C2.49249 7.36901 2.35863 7.42446 2.25993 7.52316C2.16124 7.62186 2.10579 7.75572 2.10579 7.89531H3.15835ZM19.1004 10.3731C19.1993 10.4719 19.3333 10.5274 19.4731 10.5274C19.6128 10.5274 19.7468 10.4719 19.8457 10.3731C19.9445 10.2743 20 10.1402 20 10.0005C20 9.86071 19.9445 9.72668 19.8457 9.62786L19.1004 10.3731ZM10 0.527232L10.3726 0.154618C10.3237 0.105606 10.2656 0.0667208 10.2017 0.040189C10.1378 0.0136571 10.0692 0 10 0C9.93078 0 9.86223 0.0136571 9.79829 0.040189C9.73436 0.0667208 9.67628 0.105606 9.62739 0.154618L10 0.527232ZM0.154339 9.62786C0.0555172 9.72668 0 9.86071 0 10.0005C0 10.1402 0.0555172 10.2743 0.154339 10.3731C0.25316 10.4719 0.387191 10.5274 0.526946 10.5274C0.6667 10.5274 0.800731 10.4719 0.899553 10.3731L0.154339 9.62786ZM4.73719 20H15.2628V18.9474H4.73719V20ZM17.8942 17.3685V7.89531H16.8417V17.3685H17.8942ZM3.15835 17.3685V7.89531H2.10579V17.3685H3.15835ZM19.8457 9.62786L10.3726 0.154618L9.62739 0.899846L19.1004 10.3731L19.8457 9.62786ZM9.62739 0.154618L0.154339 9.62786L0.899553 10.3731L10.3726 0.899846L9.62739 0.154618ZM15.2628 20C15.9607 20 16.63 19.7228 17.1235 19.2293C17.617 18.7358 17.8942 18.0665 17.8942 17.3685H16.8417C16.8417 17.7873 16.6753 18.1889 16.3792 18.485C16.0831 18.7811 15.6815 18.9474 15.2628 18.9474V20ZM4.73719 18.9474C4.31846 18.9474 3.91687 18.7811 3.62078 18.485C3.32469 18.1889 3.15835 17.7873 3.15835 17.3685H2.10579C2.10579 18.0665 2.38302 18.7358 2.87651 19.2293C3.36999 19.7228 4.0393 20 4.73719 20V18.9474Z" fill="black"/>
</svg>
